<svg xmlns="http://www.w3.org/2000/svg" version="1.1" xmlns:xlink="http://www.w3.org/1999/xlink" xmlns:svgjs="http://svgjs.dev/svgjs" width="1440" height="560" preserveAspectRatio="none" viewBox="0 0 1440 560"><g mask="url(&quot;#SvgjsMask1011&quot;)" fill="none"><rect width="1440" height="560" x="0" y="0" fill="rgba(255, 241, 89, 1)"></rect><path d="M 0,201 C 57.6,187.6 172.8,125.6 288,134 C 403.2,142.4 460.8,261.8 576,243 C 691.2,224.2 748.8,35.8 864,40 C 979.2,44.2 1036.8,265 1152,264 C 1267.2,263 1382.4,80.8 1440,35L1440 560L0 560z" fill="rgba(255, 247, 166, 1)"></path><path d="M 0,487 C 96,450.6 288,310.4 480,305 C 672,299.6 768,438.6 960,460 C 1152,481.4 1344,421.6 1440,412L1440 560L0 560z" fill="rgba(255, 238, 56, 1)"></path></g><defs><mask id="SvgjsMask1011"><rect width="1440" height="560" fill="#ffffff"></rect></mask></defs></svg>